<svg width="48" height="10" viewBox="0 0 48 10" fill="none" xmlns="http://www.w3.org/2000/svg">
<rect width="48" height="10" fill="#E5E5E5"/>
<g clip-path="url(#clip0)">
<path d="M4.55001 2.74C4.34575 2.49576 4.08791 2.30194 3.79653 2.17359C3.50515 2.04525 3.18809 1.98584 2.87001 2.00001C2.10508 2.01305 1.37558 2.32477 0.837422 2.86854C0.299262 3.4123 -0.00487918 4.14495 -0.00999023 4.90998C-0.019297 5.28711 0.0466202 5.66231 0.183918 6.01368C0.321217 6.36505 0.527135 6.68558 0.789662 6.95649C1.05219 7.2274 1.36606 7.44323 1.71294 7.5915C2.05982 7.73976 2.43279 7.81747 2.81002 7.82001C3.13528 7.82627 3.4581 7.76253 3.75658 7.63313C4.05506 7.50373 4.32222 7.31169 4.54 7.07001V7.66999H5.78002V0.070015H4.54L4.55001 2.74ZM2.96001 6.62C2.61614 6.63802 2.27476 6.55238 1.98009 6.37421C1.68542 6.19605 1.45102 5.93355 1.30721 5.62067C1.1634 5.3078 1.11682 4.95898 1.17348 4.61933C1.23014 4.27968 1.38743 3.96483 1.62502 3.71558C1.86261 3.46634 2.16954 3.29418 2.50609 3.22132C2.84264 3.14846 3.19331 3.17829 3.51271 3.30695C3.83212 3.43562 4.10556 3.6572 4.29763 3.943C4.48969 4.2288 4.59155 4.56564 4.59002 4.90998C4.59816 5.35316 4.43187 5.78179 4.12697 6.10352C3.82208 6.42525 3.40298 6.61435 2.96001 6.63001V6.62Z" fill="white"/>
<path d="M8.82 2.0021C8.24862 2.01978 7.6951 2.20536 7.22854 2.53567C6.76198 2.86598 6.40304 3.32641 6.19652 3.85946C5.99001 4.3925 5.94507 4.97455 6.06731 5.53298C6.18955 6.09141 6.47355 6.60146 6.88387 6.99947C7.2942 7.39749 7.81267 7.66584 8.37456 7.77102C8.93646 7.8762 9.51691 7.81355 10.0434 7.5909C10.5699 7.36825 11.0192 6.99547 11.3351 6.51907C11.6511 6.04266 11.8197 5.48372 11.82 4.91207C11.823 4.52143 11.7468 4.13429 11.5959 3.77395C11.445 3.41361 11.2227 3.08757 10.9423 2.81557C10.6619 2.54358 10.3292 2.33125 9.96444 2.19143C9.59967 2.05161 9.21036 1.98722 8.82 2.0021V2.0021ZM10.51 4.91207C10.506 5.24544 10.4036 5.57021 10.2155 5.84548C10.0275 6.12076 9.76216 6.33428 9.45303 6.45913C9.14389 6.58398 8.8047 6.61459 8.4782 6.54714C8.1517 6.47969 7.85245 6.31717 7.61809 6.08004C7.38374 5.84291 7.22476 5.54177 7.16116 5.2145C7.09755 4.88723 7.13216 4.54845 7.26064 4.24081C7.38912 3.93316 7.60573 3.67039 7.8832 3.48556C8.16067 3.30073 8.48661 3.20213 8.82 3.20211C9.04565 3.19788 9.26979 3.23971 9.47872 3.32504C9.68766 3.41037 9.877 3.5374 10.0352 3.69839C10.1934 3.85937 10.3171 4.05091 10.3987 4.26131C10.4803 4.47172 10.5182 4.69654 10.51 4.92208V4.91207Z" fill="white"/>
<path d="M29.28 4.46288L28.12 4.24285C27.67 4.16285 27.46 3.99288 27.46 3.71288C27.46 3.43288 27.94 3.07286 28.4 3.07286C28.7306 3.07626 29.0547 3.16589 29.34 3.33287C29.516 3.44418 29.6862 3.56432 29.85 3.69286L30.56 2.80284C30.56 2.80284 30.16 2.53285 29.98 2.43285C29.4886 2.15637 28.9339 2.0117 28.37 2.01287C28.1077 1.98243 27.842 2.00613 27.5892 2.08251C27.3365 2.15889 27.1021 2.2863 26.9006 2.4569C26.699 2.62749 26.5347 2.83766 26.4176 3.07433C26.3005 3.311 26.2333 3.56917 26.22 3.83287C26.22 4.71287 26.77 5.16284 28.22 5.42284L28.87 5.54283C29.31 5.62283 29.53 5.82285 29.53 6.12285C29.53 6.42285 29.17 6.76287 28.53 6.76287C28.2357 6.7574 27.9459 6.6892 27.68 6.56285C27.3834 6.38805 27.1054 6.18369 26.85 5.95287L26 6.83287C26.3543 7.16928 26.7726 7.43107 27.23 7.60283C27.6273 7.76179 28.0522 7.84002 28.48 7.83287C30.07 7.83287 30.79 6.83288 30.79 5.96288C30.79 5.09288 30.26 4.64288 29.28 4.46288Z" fill="white"/>
<path d="M15.73 5.09003C15.73 5.42155 15.5983 5.73952 15.3638 5.97394C15.1294 6.20836 14.8115 6.34003 14.48 6.34003C14.1485 6.34003 13.8305 6.20836 13.5961 5.97394C13.3616 5.73952 13.23 5.42155 13.23 5.09003V2H12V5.19C12 5.85304 12.2634 6.48892 12.7322 6.95776C13.2011 7.4266 13.837 7.69 14.5 7.69C15.163 7.69 15.7989 7.4266 16.2678 6.95776C16.7366 6.48892 17 5.85304 17 5.19V2H15.7599L15.73 5.09003Z" fill="white"/>
<path d="M37.62 2.74C37.4158 2.49576 37.1579 2.30194 36.8665 2.17359C36.5752 2.04525 36.2581 1.98584 35.94 2.00001C35.1751 2.01305 34.4456 2.32477 33.9074 2.86854C33.3693 3.4123 33.0651 4.14495 33.06 4.90998C33.0507 5.28711 33.1166 5.66231 33.2539 6.01368C33.3912 6.36505 33.5972 6.68558 33.8597 6.95649C34.1222 7.2274 34.4361 7.44323 34.783 7.5915C35.1299 7.73976 35.5028 7.81747 35.88 7.82001C36.2053 7.82627 36.5281 7.76253 36.8266 7.63313C37.125 7.50373 37.3922 7.31169 37.61 7.07001V7.66999H38.85V0.109993H37.61L37.62 2.74ZM37.62 4.90998C37.6082 5.23435 37.5009 5.54805 37.3117 5.81178C37.1225 6.0755 36.8597 6.27754 36.5562 6.39265C36.2527 6.50775 35.9221 6.53079 35.6056 6.45887C35.289 6.38695 35.0007 6.2233 34.7768 5.98835C34.5528 5.7534 34.4031 5.45761 34.3465 5.13801C34.2898 4.81841 34.3286 4.48923 34.4582 4.1916C34.5877 3.89397 34.8021 3.6411 35.0745 3.46473C35.347 3.28835 35.6654 3.1963 35.99 3.20002C36.2132 3.19998 36.4341 3.2444 36.6399 3.3307C36.8457 3.41699 37.0323 3.54345 37.1887 3.70264C37.3451 3.86184 37.4682 4.05058 37.5509 4.25788C37.6335 4.46518 37.674 4.68685 37.67 4.90998H37.62Z" fill="white"/>
<path d="M41.24 2H40V7.52H41.24V2Z" fill="white"/>
<path d="M11.82 2.0021C11.2486 2.01978 10.6951 2.20536 10.2286 2.53567C9.76201 2.86598 9.40304 3.32641 9.19652 3.85946C8.99001 4.3925 8.94507 4.97455 9.06731 5.53298C9.18955 6.09141 9.47358 6.60146 9.8839 6.99947C10.2942 7.39749 10.8127 7.66584 11.3746 7.77102C11.9365 7.8762 12.5169 7.81355 13.0434 7.5909C13.57 7.36825 14.0192 6.99547 14.3351 6.51907C14.6511 6.04266 14.8197 5.48372 14.82 4.91207C14.823 4.52143 14.7467 4.13429 14.5959 3.77395C14.445 3.41361 14.2227 3.08757 13.9423 2.81557C13.6619 2.54358 13.3292 2.33125 12.9645 2.19143C12.5997 2.05161 12.2104 1.98722 11.82 2.0021V2.0021ZM13.51 4.91207C13.5061 5.24544 13.4036 5.57021 13.2155 5.84548C13.0274 6.12076 12.7621 6.33428 12.453 6.45913C12.1439 6.58398 11.8047 6.61459 11.4782 6.54714C11.1517 6.47969 10.8524 6.31717 10.6181 6.08004C10.3837 5.84291 10.2248 5.54177 10.1612 5.2145C10.0976 4.88723 10.1322 4.54845 10.2607 4.24081C10.3892 3.93316 10.6058 3.67039 10.8832 3.48556C11.1607 3.30073 11.4866 3.20213 11.82 3.20211C12.0456 3.19788 12.2698 3.23971 12.4788 3.32504C12.6877 3.41037 12.877 3.5374 13.0352 3.69839C13.1934 3.85937 13.317 4.05091 13.3987 4.26131C13.4803 4.47172 13.5182 4.69654 13.51 4.92208V4.91207Z" fill="white"/>
<path d="M24.49 6.24V3.39002H23.64V2.18H24.49V0.399971L25.74 -0.0100021V2.15998H27.08V3.37H25.74V6.21998C25.74 6.81998 26.48 6.66999 26.69 6.60999C26.8427 6.56849 26.993 6.51839 27.14 6.45997V7.58002C26.8483 7.68492 26.5399 7.73571 26.23 7.72999C26.0163 7.75497 25.7998 7.73547 25.594 7.67274C25.3882 7.61 25.1976 7.50542 25.0342 7.36549C24.8708 7.22555 24.7381 7.05331 24.6444 6.85963C24.5508 6.66594 24.4982 6.45498 24.49 6.24Z" fill="white"/>
<path d="M40.32 1.51C40.7176 1.51 41.04 1.18764 41.04 0.79C41.04 0.392355 40.7176 0.0699997 40.32 0.0699997C39.9224 0.0699997 39.6 0.392355 39.6 0.79C39.6 1.18764 39.9224 1.51 40.32 1.51Z" fill="white"/>
<path d="M32.4361 2.73263C32.2375 2.49018 31.9848 2.29778 31.6982 2.17098C31.4116 2.04418 31.0991 1.98654 30.7861 2.00265C30.4127 1.99397 30.0415 2.06231 29.6957 2.20339C29.3498 2.34447 29.0367 2.55527 28.7759 2.82265C28.5151 3.09003 28.3122 3.40827 28.1797 3.75753C28.0473 4.10678 27.9882 4.47953 28.0061 4.85262C27.9814 5.21415 28.0314 5.57692 28.153 5.91829C28.2746 6.25967 28.4651 6.57233 28.7127 6.83687C28.9604 7.10141 29.2599 7.31217 29.5925 7.45595C29.9251 7.59974 30.2838 7.67347 30.6462 7.67263C30.9811 7.68234 31.3141 7.61842 31.6217 7.48537C31.9292 7.35233 32.2038 7.15337 32.4261 6.90261V7.14266C32.4242 7.36079 32.3772 7.57612 32.2879 7.77517C32.1987 7.97422 32.0693 8.15267 31.9077 8.29921C31.7461 8.44576 31.5559 8.55723 31.3491 8.62667C31.1423 8.6961 30.9234 8.72199 30.7062 8.70266C30.4623 8.67673 30.2261 8.60234 30.0115 8.48385C29.7968 8.36535 29.608 8.20515 29.4562 8.01265L28.4562 8.76265C28.742 9.10316 29.0963 9.37974 29.496 9.57442C29.8956 9.7691 30.3318 9.87752 30.7762 9.89266C31.1543 9.90247 31.5305 9.83471 31.8815 9.69356C32.2325 9.55241 32.5508 9.34083 32.8169 9.07192C33.083 8.80301 33.2912 8.48248 33.4287 8.13003C33.5661 7.77757 33.6299 7.40072 33.6161 7.02266V2.15261H32.4461L32.4361 2.73263ZM32.4361 4.84261C32.4534 5.0573 32.426 5.27325 32.3556 5.47683C32.2853 5.6804 32.1736 5.8672 32.0275 6.02547C31.8814 6.18374 31.7042 6.31005 31.5069 6.39644C31.3096 6.48283 31.0965 6.52743 30.8811 6.52743C30.6658 6.52743 30.4527 6.48283 30.2554 6.39644C30.0581 6.31005 29.8809 6.18374 29.7348 6.02547C29.5887 5.8672 29.477 5.6804 29.4067 5.47683C29.3363 5.27325 29.3089 5.0573 29.3262 4.84261C29.3089 4.62792 29.3363 4.41203 29.4067 4.20846C29.477 4.00488 29.5887 3.81808 29.7348 3.65981C29.8809 3.50154 30.0581 3.37523 30.2554 3.28884C30.4527 3.20245 30.6658 3.15786 30.8811 3.15786C31.0965 3.15786 31.3096 3.20245 31.5069 3.28884C31.7042 3.37523 31.8814 3.50154 32.0275 3.65981C32.1736 3.81808 32.2853 4.00488 32.3556 4.20846C32.426 4.41203 32.4534 4.62792 32.4361 4.84261V4.84261Z" fill="white"/>
</g>
<defs>
<clipPath id="clip0">
<rect width="47.35" height="9.89" fill="white"/>
</clipPath>
</defs>
</svg>
