<svg enable-background="new 0 0 280 37" viewBox="0 0 280 37" xmlns="http://www.w3.org/2000/svg"><path clip-rule="evenodd" d="m379.7 78.4c.5-.8 1-1.2 1.9-1.2.8 0 1.4.4 1.6 1.2.5-.7 1.1-1.2 2-1.2s1.7.6 1.7 1.7v2.8c0 .4.1.5.4.5h.7v.8h-3.4v-.8h.4c.3 0 .5-.1.5-.5v-2.8c0-.5-.4-.8-.9-.8-.7 0-1.3.7-1.3 1.5v2.1c0 .4.1.5.5.5h.3v.8h-3.1v-.8h.4c.3 0 .5-.1.5-.5v-2.5c0-.6-.1-1.1-.8-1.1-.8 0-1.3.7-1.3 1.5v2.1c0 .4.1.5.5.5h.4v.8h-3.7v-.8h.7c.3 0 .5-.1.5-.5v-3.1c0-.4-.2-.5-.5-.5h-.7v-.8h2.6v1.1zm-7.4-.2v-.8c1.2-.1 1.6-1.2 1.7-2.3h.7v2.2h1.2v.8h-1.2v3.6c0 .2.1.4.5.4s.5-.2.5-.7v-1h.8v1c0 1.2-.7 1.8-1.6 1.8s-1.6-.4-1.6-1.3v-3.7zm-49.1.7c0 .9.4 1.4 1.1 1.4h2.2v-10.9c0-4.8 1.9-6.7 5.5-6.7 2.1 0 3.9.9 4.2 3.2 1.6-2.4 4.3-3.2 6.9-3.2 3.3 0 6 1.6 6 5.4 0 8.2-12.8 4.2-12.8 10.2 0 2.7 2.3 3.2 4.5 3.2 1.2 0 3.2-.4 4-1.4-1.6.2-2.8-.5-2.8-2.2 0-1.9 1.3-2.5 3-2.5 1.8 0 3 1.4 3 3.1 0 4.3-5.2 5.3-8.5 5.3-5.7 0-8.2-2.6-8.2-6.1v-10.5c0-.9-.4-1.4-1-1.4s-1.1.6-1.1 3.2v14h-11.1v-3.5h-.1c-1.7 2.9-3.8 4.1-6.6 4.1-5.9 0-8.3-5.3-8.3-10.6 0-5.2 3.1-10.5 8.3-10.5 3.3 0 5.7 2.1 6.6 3.6h.1v-6.6c0-1.2-.4-1.8-1.7-1.8h-2.6v-2.7h9.4zm-163.4 4.1v-2.8h2.1c1.2 0 1.7-.5 1.7-1.7v-19c0-1.2-.5-1.7-1.7-1.7h-2.1v-2.8h8.7v23.6c0 1.2.5 1.7 1.7 1.7h5.1c1.2 0 1.7-.5 1.7-1.7v-19.1c0-1.2-.5-1.7-1.7-1.7h-2.1v-2.8h8.8v23.6c0 1.2.5 1.7 1.7 1.7h2v2.7zm190.6-19.7h12.2v2.7h-1.8c-.7 0-1.2.3-1.2.9 0 .3.2.8.4 1.2l3.8 9h.1l3.5-8.6c.2-.5.4-1 .4-1.5s-.6-1-1.3-1h-1.8v-2.8h10.2v2.8c-1.5 0-2.8.3-3.4 1.9l-6.9 16.3c-2.3 5.5-4.5 7.8-8.5 7.8-2.9 0-5.6-1.8-5.6-5.1 0-2.1 1.1-3.7 3.3-3.7 1.5 0 2.9 1.1 2.9 2.6 0 1.3-.9 2.4-2.1 2.4-.3 0-.8 0-1.1 0 .4.8 1.3 1 2.1 1 2.5 0 3.7-1.3 4.6-3.1l1.4-3.1-7.1-15.3c-.5-1.1-1.7-1.7-3.8-1.7v-2.7zm-14 10.4 4.5-2c1.2-.5 2.5-1.2 2.5-3.2 0-1.8-.8-2.6-2.5-2.6-2.9 0-4.5 2.4-4.5 5.1zm-23.3 6.7c2.8 0 5.1-2.4 5.1-7.5 0-4.6-2.2-7-5.1-7-2.8 0-4.4 2.4-4.4 7.2.1 4.9 1.6 7.3 4.4 7.3zm-27-13.5c1.8-2.6 4.1-4.3 7.4-4.3 3.7 0 6 2.2 6 6.8v9.1c0 1.2.5 1.7 2.5 1.7h1.5v2.8h-12.3v-2.8h1c1.8 0 2.3-.5 2.3-1.7v-8.8c0-3.2-1.7-3.8-3.7-3.8s-4.7 2.1-4.7 4.9v7.8c0 1.2.5 1.7 1.7 1.7h1.6v2.7h-12.4v-2.8h2.4c1.2 0 1.7-.5 1.7-1.7v-10.2c0-1.8-.5-2.3-2.7-2.3h-1.4v-2.8h9.1zm-20.3 14c3.4 0 5.2-2.7 5.2-7.8s-1.8-7.7-5.2-7.7-5.2 2.6-5.2 7.7 1.8 7.8 5.2 7.8zm0-18.3c6.3 0 10.8 3.8 10.8 10.5s-4.5 10.6-10.8 10.6-10.9-3.8-10.9-10.6c.1-6.7 4.6-10.5 10.9-10.5zm-39.6 16.2c0 1 1 1.5 1.9 1.5h2.6v2.7h-13.2v-2.8h2.5c1.3 0 1.8-.4 1.8-1.5v-19.5c0-1-.7-1.4-1.7-1.4h-2.6v-2.8h13.3l5.7 18.3h.1l6.4-18.3h12.8v2.8h-2.8c-1 0-1.7.4-1.7 1.4v19c0 1.3.7 2 1.8 2h2.7v2.8h-14.7v-2.8h2.8c1.2 0 1.8-.6 1.8-1.5v-19.5h-.1l-8 23.8h-3.6l-7.7-23.8h-.1zm-29.8 2.1c3.4 0 5.2-2.7 5.2-7.8s-1.8-7.7-5.2-7.7-5.2 2.6-5.2 7.7c.1 5.1 1.8 7.8 5.2 7.8zm0-18.3c6.3 0 10.9 3.8 10.9 10.5s-4.5 10.6-10.9 10.6c-6.3 0-10.9-3.8-10.9-10.6.1-6.7 4.6-10.5 10.9-10.5zm-42.4 8.3c0-2.6-.8-5.3-3.8-5.3-2.9 0-3.9 2.6-4.1 5.3zm-7.8 2.7c-.1 3.3.9 6.9 4.8 6.9 3 0 4.6-1.6 5.1-4.5h3.5c-.5 4.8-3.4 7.7-9.1 7.7-6.6 0-10.1-3.7-10.1-10.6 0-6.2 4-10.5 9.8-10.5 6.9 0 9.8 6.2 9.4 11zm-38.2 9.4v-2.8h2.8c1.3 0 1.7-.4 1.7-1.5v-19.4c0-1.1-.4-1.5-1.7-1.5h-2.8v-2.8h15.4v2.8h-3.2c-1.3 0-1.7.4-1.7 1.5v8.4h12.4v-8.4c0-1.1-.4-1.5-1.7-1.5h-3.2v-2.8h15.4v2.8h-2.8c-1.3 0-1.7.4-1.7 1.5v19.5c0 1.1.4 1.5 1.7 1.5h2.8v2.7h-15.4v-2.8h3.2c1.3 0 1.7-.4 1.7-1.5v-7.9h-12.4v7.9c0 1.1.4 1.5 1.7 1.5h3.2v2.8z" fill="#fff" fill-rule="evenodd" transform="translate(-108 -55)"/></svg>