<svg xmlns="http://www.w3.org/2000/svg" viewBox="0 0 207 30">
  <defs><style>.cls-1{fill:#ffffff;}</style></defs>
  <path class="cls-1" d="M21.9,29.2a12.27585,12.27585,0,0,1-11.5-7C8.5,26.1,5.7,29.1,0,29.1V25.7999C4.9,25.7999,6.8,23,8.8,17.5h3.1c2.2,5.9,5.2,8.4,10,8.4a8.53691,8.53691,0,0,0,6.7-3.1001A10.48343,10.48343,0,0,0,31,16.2c0-3.2-1.6-6.6-6.1-6.6A5.58422,5.58422,0,0,0,19,15.5c0,2.3,1,4.7,3,4.7a2.26845,2.26845,0,0,0,2.6-1.9,2.7501,2.7501,0,0,0-1.4-3.2l1.4-3A6.18513,6.18513,0,0,1,27.8,19,5.65129,5.65129,0,0,1,22,23.4h-.1c-3.6-.1-6.3-3.5-6.3-8C15.6,11,18.5,6.2,24.8,6.2c6.5,0,9.4,5,9.4,9.90005C34.3,22.6,29.7,29.2,21.9,29.2Z"/>
  <path class="cls-1" d="M41.8,6.6,39.9,3.9C41,3.1,41.3,1.3,41.3,0h3.3C44.6,3.1,43.6,5.3,41.8,6.6Z"/>
  <path class="cls-1" d="M44.1,7.80005l-.3-3.3h-.1a8.18673,8.18673,0,0,0,2.7-2.2l3,1.4C48.6,5.30005,45.8,7.60005,44.1,7.80005Z"/>
  <path class="cls-1" d="M64.5,22.7001A6.72753,6.72753,0,0,0,66,24.1a7.8399,7.8399,0,0,0,4.6,1.4c3.2,0,4.9-1.7,4.9-3.7,0-5.4-12.9-2.1-12.9-11.2,0-3.69995,3.2-6.79995,8.4-6.79995a10.679,10.679,0,0,1,7.7,3.2l-2.7,2.6a6.8853,6.8853,0,0,0-1.3-1.1,6.339,6.339,0,0,0-3.8-1.2c-3,0-4.5,1.5-4.5,3.3,0,5.4,12.9,2.1,12.9,11.2,0,3.8-3.3,7.2-8.7,7.2A12.104,12.104,0,0,1,64,27.2001,12.40587,12.40587,0,0,1,61.9,25.4Z"/>
  <path class="cls-1" d="M97.2,25.8a8.6893,8.6893,0,0,1-1.7,1.6A9.35411,9.35411,0,0,1,90.1,29a8.58107,8.58107,0,0,1-8.7-8.7,8.53825,8.53825,0,0,1,8.5-8.7,7.99037,7.99037,0,0,1,8.2,8.2c0,.5-.1.9-.1,1.3l-.1.5H85a5.12742,5.12742,0,0,0,5.2,4.2,7.29948,7.29948,0,0,0,3.6-1.1,4.89444,4.89444,0,0,0,1.3-1.2Zm-2.8-7.3a4.43555,4.43555,0,0,0-4.5-3.8A4.87706,4.87706,0,0,0,85,18.5Z"/>
  <path class="cls-1" d="M101.7,15.2H99.2V11.9h1.3c1.1,0,1.6-.5,1.6-1.9V6.30005h3.1v5.6H109v3.3h-3.8V23c0,1.7001.8,2.6,2.4,2.6a5.90192,5.90192,0,0,0,1.4-.2l.6-.3v3.3l-.7.3001A9.20511,9.20511,0,0,1,107,28.9c-3.3,0-5.2-1.9-5.2-5.6V15.2Z"/>
  <path class="cls-1" d="M122.3,22.7001A6.72753,6.72753,0,0,0,123.8,24.1a7.83989,7.83989,0,0,0,4.6,1.4c3.2,0,4.9-1.7,4.9-3.7,0-5.4-12.9-2.1-12.9-11.2,0-3.69995,3.2-6.79995,8.4-6.79995a10.679,10.679,0,0,1,7.7,3.2l-2.6,2.6a6.88486,6.88486,0,0,0-1.3-1.1,6.33907,6.33907,0,0,0-3.8-1.2c-3,0-4.5,1.5-4.5,3.3,0,5.4,12.9,2.1,12.9,11.2,0,3.8-3.3,7.2-8.7,7.2a12.104,12.104,0,0,1-6.6-1.7999A12.40587,12.40587,0,0,1,119.8,25.4Z"/>
  <path class="cls-1" d="M139.5,11.8H143v2.4a5.7062,5.7062,0,0,1,1.3-1.4,6.28327,6.28327,0,0,1,3.9-1.4c3.8,0,6.6,2.8,6.6,7.3v9.8h-3.5V18.7a3.67772,3.67772,0,0,0-3.8-4,4.41354,4.41354,0,0,0-4.5,4.7v9.1h-3.5Z"/>
  <path class="cls-1" d="M168.2,26.1a5.70644,5.70644,0,0,1-1.3,1.4,6.66917,6.66917,0,0,1-4.1,1.4c-3.3,0-5.6-2.3-5.6-4.9,0-2.8,1.9-4.7,4.9-5.2l6.1-1c0-1.8-1.4-3.1-3.5-3.1a5.15669,5.15669,0,0,0-3.2,1.2,6.27845,6.27845,0,0,0-1.2,1.1L158,14.7a8.6893,8.6893,0,0,1,1.7-1.6,8.23051,8.23051,0,0,1,5-1.6c4.2,0,7,2.8,7,6.5V28.6h-3.5Zm0-5.5-4.9.9c-1.8.3-2.6,1.2-2.6,2.3,0,1.2,1,2.3,2.8,2.3a4.74194,4.74194,0,0,0,4.7-4.9Z"/>
  <path class="cls-1" d="M176.6,4.5a2.1,2.1,0,1,1-2.1,2.1A2.11226,2.11226,0,0,1,176.6,4.5Zm-1.7,7.3h3.5V28.5h-3.5Z"/>
  <path class="cls-1" d="M181.3,4.1h3.5V28.5h-3.5Z"/>
  <path class="cls-1" d="M42.7,3.8a5.38364,5.38364,0,0,0-4.5.7c-2.6,1.8-3.2,5.6-3.2,6h3.3c.2-.9.7-2.6,1.8-3.3A2.23725,2.23725,0,0,1,41.9,7c.9.2,1.6,2.1,1.5,4.5-.1,5.1-3.3,13-9.9,14.3l.7,3.2c5.9-1.2,12.4-7.8,12.6-17.5C46.8,7.4,45.3,4.5,42.7,3.8Z"/>
  <path class="cls-1" d="M191.4,6.4H189V4.1h7.3V6.4h-2.4v6.3h-2.4V6.4Zm5.8-2.3h2.2L202,7.5l2.6-3.4h2.2v8.6h-2.4V8.1L202.1,11l-2.3-2.9v4.7h-2.4V4.1Z"/>
  <path class="cls-1" d="M40.8,2.80005a2.84763,2.84763,0,0,1-1.8,1.3l1.3.1Z"/>
  <path class="cls-1" d="M44.7,3.9a1.68938,1.68938,0,0,1-1,.3l.5.6Z"/>
</svg>